<svg width="193" height="76" viewBox="0 0 193 76" fill="none" xmlns="http://www.w3.org/2000/svg">
<g clip-path="url(#clip0_23109_52032)">
<path d="M0 12.5369C0 4.20687 5.72 0.046875 17.16 0.046875C28.6 0.046875 34.36 4.20687 34.36 12.5369V20.5369H22.4V12.5369C22.4 9.86687 20.67 8.52688 17.2 8.50688H17.12C13.68 8.50688 11.96 9.84687 11.96 12.5369V17.9369C11.96 20.5869 15.69 23.8269 23.16 27.6669C30.63 31.4869 34.36 36.0669 34.36 41.3969V48.9169C34.36 57.2669 28.64 61.4369 17.2 61.4369C5.73 61.4169 0 57.2469 0 48.9169V40.9169H11.96V48.9169C11.96 51.6069 13.71 52.9469 17.2 52.9469C20.69 52.9469 22.4 51.6069 22.4 48.9169V42.1269C22.4 39.2569 18.67 35.9069 11.2 32.0669C3.73 28.2369 0 23.5969 0 18.1169V12.5369Z" fill="#18997D"/>
<path d="M155.677 0V32.16C155.677 34.75 153.947 37.1 151.137 38.8C149.597 39.73 147.738 40.47 145.658 40.95V61.51H134.708V40.95C128.848 39.61 124.688 36.18 124.688 32.17V0H135.848V32.11C135.848 33.56 137.787 34.74 140.188 34.74C142.588 34.74 144.527 33.56 144.527 32.11V0H155.688H155.677Z" fill="#18997D"/>
<path d="M177.348 0C169.008 0 162.258 3.77 162.258 8.41V61.51H173.118V40.94C174.458 41.16 175.878 41.28 177.348 41.28C181.518 41.28 185.288 40.34 188.018 38.82C190.748 37.3 192.438 35.19 192.438 32.87V8.41C192.438 3.77 185.678 0 177.348 0ZM181.568 26.27C181.568 26.27 181.568 26.29 181.568 26.31C181.568 26.32 181.568 26.33 181.568 26.35V33.2C181.568 34.5 179.678 35.55 177.348 35.55C176.178 35.55 175.128 35.29 174.358 34.86C173.588 34.44 173.118 33.84 173.118 33.2V8.23C173.118 6.93 175.008 5.88 177.348 5.88C178.518 5.88 179.568 6.14 180.338 6.57C181.108 7 181.578 7.58 181.578 8.23V26.27H181.568Z" fill="#18997D"/>
<path d="M76.5506 0V8.35H63.8106V61.51H52.8706V8.35H40.1406V0H76.5506Z" fill="#18997D"/>
<mask id="mask0_23109_52032" style="mask-type:luminance" maskUnits="userSpaceOnUse" x="78" y="0" width="41" height="62">
<path d="M98.6619 27.1512C98.3119 27.0012 97.9619 26.8612 97.6119 26.7112L95.7919 25.8612V13.8113C95.7919 13.8113 95.7919 13.7713 95.7919 13.7513C95.7919 13.7313 95.7919 13.7112 95.7919 13.6912V12.2213C95.7919 10.2913 97.9719 8.73125 100.662 8.73125C103.352 8.73125 105.532 10.2913 105.532 12.2213V13.6912C105.532 13.6912 105.532 13.7313 105.532 13.7513C105.532 13.7713 105.532 13.7913 105.532 13.8113V23.9712C105.532 25.9012 103.352 27.4612 100.662 27.4612C99.9419 27.4612 99.2619 27.3512 98.6519 27.1512M83.2819 11.9412H83.2619V20.6512C81.6519 19.9712 80.0319 19.2912 78.4219 18.6112L78.4419 27.8312C80.0519 28.4912 81.6519 29.1612 83.2619 29.8212V48.7812C83.2619 55.6712 91.0519 61.2612 100.662 61.2612C110.272 61.2612 118.062 55.6712 118.062 48.7812V40.6712H105.532V49.1813C105.532 51.1113 103.352 52.6712 100.662 52.6712C97.9719 52.6712 95.7919 51.1113 95.7919 49.1813V39.1012C95.7919 39.1012 95.7919 39.0613 95.7919 39.0413C95.7919 39.0313 95.7919 39.0113 95.7919 39.0013C95.7919 38.9913 95.7919 38.9713 95.7919 38.9613C95.7919 38.9413 95.7919 38.9213 95.7919 38.9113V35.4713C97.3419 35.7913 98.9719 35.9713 100.662 35.9713C108.632 35.9713 115.342 32.1312 117.402 26.8812C117.402 26.8812 117.412 26.8812 117.422 26.8812C117.422 26.8612 117.422 26.8512 117.422 26.8312C117.832 25.7712 118.052 24.6512 118.052 23.4912V11.9412H118.032C117.642 5.32125 110.022 0.03125 100.672 0.03125C91.3219 0.03125 83.7019 5.32125 83.2919 11.9513" fill="white"/>
</mask>
<g mask="url(#mask0_23109_52032)">
<path d="M88.1656 -17.0374L52.0703 46.2188L108.326 78.3194L144.421 15.0633L88.1656 -17.0374Z" fill="url(#paint0_linear_23109_52032)"/>
</g>
<path d="M44.0466 75.5897L43.1066 72.9897H39.5166L38.5966 75.5897H36.9766L40.4866 66.1797H42.1566L45.6666 75.5897H44.0366H44.0466ZM42.7066 71.6597L41.8266 69.1097C41.7666 68.9397 41.6766 68.6697 41.5566 68.2997C41.4466 67.9297 41.3666 67.6597 41.3266 67.4897C41.2066 68.0197 41.0466 68.5897 40.8166 69.2197L39.9666 71.6597H42.6966H42.7066Z" fill="#4E4E4E"/>
<path d="M52.9978 75.595H51.4878V71.235C51.4878 70.685 51.3778 70.275 51.1578 70.015C50.9378 69.755 50.5878 69.615 50.1078 69.615C49.4678 69.615 49.0078 69.805 48.7078 70.175C48.4178 70.555 48.2678 71.185 48.2678 72.065V75.595H46.7578V68.505H47.9378L48.1478 69.435H48.2278C48.4378 69.095 48.7478 68.835 49.1378 68.655C49.5278 68.475 49.9678 68.375 50.4478 68.375C52.1478 68.375 52.9978 69.245 52.9978 70.975V75.595Z" fill="#4E4E4E"/>
<path d="M58.4141 66.6134C58.4141 66.3434 58.4841 66.1334 58.6341 65.9934C58.7841 65.8534 58.9941 65.7734 59.2641 65.7734C59.5341 65.7734 59.7341 65.8434 59.8841 65.9934C60.0341 66.1434 60.1041 66.3434 60.1041 66.6134C60.1041 66.8834 60.0341 67.0734 59.8841 67.2234C59.7341 67.3734 59.5341 67.4434 59.2641 67.4434C58.9941 67.4434 58.7841 67.3734 58.6341 67.2234C58.4841 67.0734 58.4141 66.8734 58.4141 66.6134ZM60.0141 75.5834H58.5041V68.4934H60.0141V75.5834Z" fill="#4E4E4E"/>
<path d="M68.4041 75.595H66.8941V71.235C66.8941 70.685 66.7841 70.275 66.5641 70.015C66.3441 69.755 65.9941 69.615 65.5141 69.615C64.8741 69.615 64.4141 69.805 64.1141 70.175C63.8241 70.555 63.6741 71.185 63.6741 72.065V75.595H62.1641V68.505H63.3441L63.5541 69.435H63.6341C63.8441 69.095 64.1541 68.835 64.5441 68.655C64.9341 68.475 65.3741 68.375 65.8541 68.375C67.5541 68.375 68.4041 69.245 68.4041 70.975V75.595Z" fill="#4E4E4E"/>
<path d="M70.4141 66.6134C70.4141 66.3434 70.4841 66.1334 70.6341 65.9934C70.7841 65.8534 70.9941 65.7734 71.2641 65.7734C71.5341 65.7734 71.7341 65.8434 71.8841 65.9934C72.0341 66.1434 72.1041 66.3434 72.1041 66.6134C72.1041 66.8834 72.0341 67.0734 71.8841 67.2234C71.7341 67.3734 71.5341 67.4434 71.2641 67.4434C70.9941 67.4434 70.7841 67.3734 70.6341 67.2234C70.4841 67.0734 70.4141 66.8734 70.4141 66.6134ZM72.0141 75.5834H70.5041V68.4934H72.0141V75.5834Z" fill="#4E4E4E"/>
<path d="M76.8059 74.5019C77.1759 74.5019 77.5459 74.4419 77.9059 74.3319V75.4719C77.7359 75.5419 77.5259 75.6019 77.2659 75.6519C77.0059 75.7019 76.7259 75.7219 76.4459 75.7219C75.0159 75.7219 74.3059 74.9719 74.3059 73.4619V69.6419H73.3359V68.9719L74.3759 68.4219L74.8859 66.9219H75.8159V68.5019H77.8359V69.6419H75.8159V73.4419C75.8159 73.8019 75.9059 74.0719 76.0859 74.2419C76.2659 74.4119 76.5059 74.5019 76.8059 74.5019Z" fill="#4E4E4E"/>
<path d="M79.2344 66.6134C79.2344 66.3434 79.3044 66.1334 79.4544 65.9934C79.6044 65.8534 79.8144 65.7734 80.0844 65.7734C80.3544 65.7734 80.5544 65.8434 80.7044 65.9934C80.8544 66.1434 80.9244 66.3434 80.9244 66.6134C80.9244 66.8834 80.8544 67.0734 80.7044 67.2234C80.5544 67.3734 80.3544 67.4434 80.0844 67.4434C79.8144 67.4434 79.6044 67.3734 79.4544 67.2234C79.3044 67.0734 79.2344 66.8734 79.2344 66.6134ZM80.8344 75.5834H79.3244V68.4934H80.8344V75.5834Z" fill="#4E4E4E"/>
<path d="M87.43 75.5916L87.13 74.6016H87.08C86.74 75.0316 86.39 75.3316 86.05 75.4816C85.71 75.6316 85.26 75.7116 84.72 75.7116C84.02 75.7116 83.48 75.5216 83.09 75.1516C82.7 74.7716 82.5 74.2416 82.5 73.5516C82.5 72.8216 82.77 72.2716 83.31 71.9016C83.85 71.5316 84.68 71.3316 85.79 71.2916L87.01 71.2516V70.8716C87.01 70.4216 86.9 70.0816 86.69 69.8516C86.48 69.6216 86.15 69.5116 85.71 69.5116C85.35 69.5116 85 69.5616 84.66 69.6716C84.33 69.7816 84.01 69.9016 83.7 70.0516L83.21 68.9716C83.59 68.7716 84.02 68.6216 84.47 68.5116C84.93 68.4116 85.36 68.3516 85.77 68.3516C86.67 68.3516 87.35 68.5516 87.81 68.9416C88.27 69.3316 88.5 69.9516 88.5 70.7916V75.5716H87.42L87.43 75.5916ZM85.19 74.5616C85.74 74.5616 86.18 74.4116 86.51 74.1016C86.84 73.7916 87.01 73.3716 87.01 72.8116V72.1916L86.1 72.2316C85.39 72.2616 84.87 72.3716 84.55 72.5916C84.23 72.8016 84.07 73.1316 84.07 73.5616C84.07 73.8816 84.16 74.1216 84.35 74.2916C84.54 74.4616 84.82 74.5516 85.2 74.5516L85.19 74.5616Z" fill="#4E4E4E"/>
<path d="M93.2591 74.5019C93.6291 74.5019 93.9991 74.4419 94.3591 74.3319V75.4719C94.1891 75.5419 93.9791 75.6019 93.7191 75.6519C93.4591 75.7019 93.1791 75.7219 92.8991 75.7219C91.4691 75.7219 90.7591 74.9719 90.7591 73.4619V69.6419H89.7891V68.9719L90.8291 68.4219L91.3391 66.9219H92.2691V68.5019H94.2891V69.6419H92.2691V73.4419C92.2691 73.8019 92.3591 74.0719 92.5391 74.2419C92.7191 74.4119 92.9591 74.5019 93.2591 74.5019Z" fill="#4E4E4E"/>
<path d="M95.6875 66.6134C95.6875 66.3434 95.7575 66.1334 95.9075 65.9934C96.0575 65.8534 96.2675 65.7734 96.5375 65.7734C96.8075 65.7734 97.0075 65.8434 97.1575 65.9934C97.3075 66.1434 97.3775 66.3434 97.3775 66.6134C97.3775 66.8834 97.3075 67.0734 97.1575 67.2234C97.0075 67.3734 96.8075 67.4434 96.5375 67.4434C96.2675 67.4434 96.0575 67.3734 95.9075 67.2234C95.7575 67.0734 95.6875 66.8734 95.6875 66.6134ZM97.2875 75.5834H95.7775V68.4934H97.2875V75.5834Z" fill="#4E4E4E"/>
<path d="M101.057 75.59L98.3672 68.5H99.9572L101.397 72.62C101.647 73.31 101.797 73.87 101.847 74.3H101.897C101.937 73.99 102.087 73.43 102.347 72.62L103.787 68.5H105.387L102.677 75.59H101.047H101.057Z" fill="#4E4E4E"/>
<path d="M109.567 75.7094C108.467 75.7094 107.597 75.3894 106.977 74.7394C106.357 74.0994 106.047 73.2094 106.047 72.0794C106.047 70.9494 106.337 70.0094 106.917 69.3494C107.497 68.6894 108.287 68.3594 109.297 68.3594C110.237 68.3594 110.977 68.6394 111.517 69.2094C112.057 69.7794 112.327 70.5594 112.327 71.5594V72.3694H107.597C107.617 73.0594 107.807 73.5894 108.157 73.9594C108.507 74.3294 108.997 74.5094 109.637 74.5094C110.057 74.5094 110.447 74.4694 110.807 74.3894C111.167 74.3094 111.557 74.1794 111.967 73.9994V75.2294C111.597 75.4094 111.227 75.5294 110.847 75.5994C110.467 75.6694 110.037 75.7094 109.557 75.7094H109.567ZM109.287 69.4994C108.807 69.4994 108.427 69.6494 108.137 69.9594C107.847 70.2594 107.677 70.7094 107.617 71.2894H110.837C110.837 70.6994 110.687 70.2594 110.417 69.9594C110.147 69.6594 109.767 69.5094 109.287 69.5094V69.4994Z" fill="#4E4E4E"/>
<path d="M121.004 69.6312H119.274V75.5813H117.764V69.6312H116.594V68.9212L117.764 68.4613V68.0013C117.764 67.1613 117.964 66.5413 118.354 66.1413C118.744 65.7413 119.344 65.5312 120.154 65.5312C120.684 65.5312 121.204 65.6213 121.714 65.7913L121.314 66.9313C120.944 66.8113 120.584 66.7513 120.254 66.7513C119.924 66.7513 119.664 66.8613 119.504 67.0713C119.344 67.2813 119.274 67.6012 119.274 68.0212V68.4813H121.004V69.6213V69.6312Z" fill="#4E4E4E"/>
<path d="M125.805 68.3616C126.105 68.3616 126.355 68.3816 126.555 68.4216L126.405 69.8216C126.195 69.7716 125.965 69.7416 125.735 69.7416C125.135 69.7416 124.645 69.9416 124.265 70.3316C123.895 70.7216 123.705 71.2316 123.705 71.8616V75.5716H122.195V68.4816H123.375L123.575 69.7316H123.655C123.895 69.3116 124.195 68.9716 124.575 68.7216C124.955 68.4716 125.365 68.3516 125.795 68.3516L125.805 68.3616Z" fill="#4E4E4E"/>
<path d="M134.163 72.0294C134.163 73.1894 133.863 74.0894 133.273 74.7394C132.683 75.3894 131.853 75.7094 130.793 75.7094C130.133 75.7094 129.543 75.5594 129.033 75.2594C128.523 74.9594 128.133 74.5294 127.863 73.9694C127.593 73.4094 127.453 72.7594 127.453 72.0194C127.453 70.8694 127.743 69.9694 128.343 69.3294C128.933 68.6794 129.763 68.3594 130.833 68.3594C131.903 68.3594 132.673 68.6894 133.273 69.3494C133.873 70.0094 134.173 70.8994 134.173 72.0194L134.163 72.0294ZM129.003 72.0294C129.003 73.6694 129.603 74.4894 130.823 74.4894C132.043 74.4894 132.623 73.6694 132.623 72.0294C132.623 70.3894 132.023 69.5994 130.813 69.5994C130.183 69.5994 129.723 69.8094 129.433 70.2294C129.153 70.6494 129.003 71.2494 129.003 72.0294Z" fill="#4E4E4E"/>
<path d="M141.878 75.595H140.368V71.225C140.368 70.685 140.268 70.275 140.058 70.005C139.848 69.735 139.528 69.605 139.098 69.605C138.518 69.605 138.088 69.795 137.818 70.175C137.548 70.555 137.408 71.185 137.408 72.065V75.595H135.898V68.505H137.078L137.288 69.435H137.368C137.568 69.095 137.848 68.835 138.228 68.655C138.598 68.475 139.018 68.375 139.458 68.375C140.548 68.375 141.268 68.745 141.628 69.495H141.728C141.938 69.145 142.228 68.875 142.618 68.675C142.998 68.475 143.438 68.375 143.928 68.375C144.778 68.375 145.388 68.585 145.778 69.015C146.168 69.445 146.358 70.095 146.358 70.975V75.595H144.848V71.225C144.848 70.685 144.748 70.275 144.538 70.005C144.328 69.735 144.008 69.605 143.568 69.605C142.978 69.605 142.558 69.785 142.278 70.155C141.998 70.525 141.868 71.085 141.868 71.835V75.595H141.878Z" fill="#4E4E4E"/>
<path d="M152.88 69.4059H151.44C151.44 69.4059 151.35 69.3759 151.34 69.3259L150.88 67.7159C150.86 67.6559 150.9 67.6059 150.95 67.5859C150.95 67.5859 150.97 67.5859 150.98 67.5859H156.5C156.5 67.5859 156.59 67.6159 156.6 67.6659L157.04 69.2759C157.06 69.3359 157.02 69.3859 156.97 69.4059C156.97 69.4059 156.95 69.4059 156.94 69.4059H155.17C155.11 69.4059 155.06 69.4559 155.06 69.5159V75.4859C155.06 75.5459 155.01 75.5959 154.95 75.5959H153.08C153.02 75.5959 152.97 75.5459 152.97 75.4859V69.5159C152.97 69.4559 152.92 69.4059 152.86 69.4059" fill="#4E4E4E"/>
<path d="M161.55 74.1644H158.28C158.28 74.1644 158.21 74.1844 158.19 74.2144L157.42 75.5344C157.42 75.5344 157.37 75.5844 157.33 75.5844H155.43C155.37 75.5844 155.32 75.5344 155.32 75.4744C155.32 75.4544 155.32 75.4344 155.33 75.4244L159.82 67.6244C159.85 67.5744 159.91 67.5544 159.96 67.5844C159.98 67.5844 159.99 67.6044 160 67.6244L164.48 75.4244C164.51 75.4744 164.49 75.5444 164.44 75.5644C164.42 75.5644 164.41 75.5744 164.39 75.5744H162.49C162.49 75.5744 162.42 75.5544 162.4 75.5244L161.63 74.2044C161.63 74.2044 161.58 74.1544 161.54 74.1544M160.65 72.5144L160 71.4044C159.97 71.3544 159.91 71.3344 159.86 71.3644C159.84 71.3644 159.83 71.3844 159.82 71.4044L159.17 72.5144C159.14 72.5644 159.16 72.6344 159.21 72.6544C159.23 72.6544 159.24 72.6644 159.26 72.6644H160.56C160.62 72.6644 160.67 72.6144 160.67 72.5544C160.67 72.5344 160.67 72.5144 160.66 72.5044" fill="#4E4E4E"/>
<path d="M169.667 75.5859H164.977C164.917 75.5859 164.867 75.5359 164.867 75.4759V67.6959C164.867 67.6359 164.917 67.5859 164.977 67.5859H166.847C166.907 67.5859 166.957 67.6259 166.957 67.6859V73.6459C166.957 73.7059 167.007 73.7559 167.067 73.7559H170.167C170.227 73.7559 170.277 73.8059 170.277 73.8659C170.277 73.8759 170.277 73.8859 170.277 73.8959L169.787 75.5159C169.787 75.5159 169.737 75.5859 169.687 75.5859" fill="#4E4E4E"/>
<path d="M170.848 75.4581V67.6881C170.848 67.6281 170.898 67.5781 170.958 67.5781H173.208C173.878 67.5781 174.468 67.6581 174.978 67.8281C175.488 67.9881 175.878 68.2581 176.168 68.6281C176.448 68.9981 176.588 69.4681 176.588 70.0581C176.588 70.4981 176.458 70.9181 176.218 71.2881C176.018 71.6281 175.708 71.8881 175.348 72.0481C175.298 72.0681 175.268 72.1281 175.288 72.1881C175.288 72.1881 175.288 72.1881 175.288 72.1981L177.228 75.4281C177.258 75.4781 177.238 75.5481 177.188 75.5781C177.168 75.5781 177.148 75.5981 177.138 75.5981H174.958C174.958 75.5981 174.888 75.5781 174.868 75.5481L172.938 72.0181H172.918V75.4881C172.918 75.5481 172.868 75.5981 172.808 75.5981H170.938C170.878 75.5981 170.828 75.5481 170.828 75.4881M172.908 71.4381C172.908 71.4981 172.958 71.5481 173.018 71.5481C173.318 71.5481 173.578 71.4981 173.778 71.4281C173.988 71.3681 174.178 71.2281 174.308 71.0481C174.428 70.8781 174.488 70.6481 174.498 70.3781C174.498 69.9681 174.368 69.6781 174.108 69.5281C173.858 69.3881 173.498 69.3181 173.018 69.3081C172.958 69.3081 172.908 69.3581 172.908 69.4181V71.4381Z" fill="#4E4E4E"/>
<path d="M183.44 68.1419C184.04 68.4919 184.55 68.9819 184.9 69.5919C185.26 70.2019 185.44 70.8919 185.44 71.5919C185.44 72.2919 185.26 72.9819 184.9 73.5919C184.18 74.8219 182.86 75.5719 181.44 75.5719C180.02 75.5719 178.7 74.8219 177.97 73.5919C177.61 72.9919 177.42 72.3019 177.43 71.5919C177.43 70.8919 177.61 70.1919 177.97 69.5919C178.32 68.9919 178.83 68.4919 179.43 68.1419C180.67 67.4319 182.19 67.4319 183.43 68.1419M180.35 69.6619C179.69 70.0819 179.29 70.8119 179.28 71.5919C179.28 71.9719 179.38 72.3519 179.57 72.6819C179.75 73.0219 180.02 73.3119 180.35 73.5219C181 73.9419 181.84 73.9419 182.49 73.5219C182.82 73.3119 183.09 73.0219 183.27 72.6819C183.65 72.0019 183.65 71.1719 183.27 70.5019C183.08 70.1619 182.82 69.8719 182.49 69.6619C182.17 69.4519 181.8 69.3419 181.42 69.3419C181.04 69.3419 180.67 69.4519 180.35 69.6619Z" fill="#4E4E4E"/>
<path d="M186.258 75.4781V67.6881C186.258 67.6281 186.308 67.5781 186.368 67.5781H188.798C189.368 67.5781 189.848 67.6181 190.248 67.6981C190.618 67.7681 190.978 67.9081 191.298 68.1181C191.598 68.3181 191.828 68.5881 191.978 68.9181C192.138 69.2481 192.218 69.6581 192.218 70.1381C192.218 70.5081 192.138 70.8681 191.978 71.1981C191.818 71.5081 191.588 71.7881 191.318 71.9981C191.018 72.2281 190.678 72.4081 190.308 72.5081C189.908 72.6281 189.498 72.6881 189.088 72.6881H188.468C188.408 72.6881 188.358 72.7381 188.358 72.7981V75.4781C188.358 75.5381 188.308 75.5881 188.248 75.5881H186.378C186.318 75.5881 186.268 75.5381 186.268 75.4781M188.348 69.3881V70.8981C188.348 70.9581 188.398 71.0081 188.458 71.0081H188.948C189.328 71.0081 189.628 70.9281 189.828 70.7781C190.028 70.6281 190.128 70.4181 190.128 70.1381C190.128 69.8581 190.028 69.6581 189.828 69.5081C189.618 69.3581 189.328 69.2881 188.948 69.2881H188.458C188.398 69.2881 188.348 69.3381 188.348 69.3981" fill="#4E4E4E"/>
</g>
<defs>
<linearGradient id="paint0_linear_23109_52032" x1="81.0803" y1="22.9644" x2="115.044" y2="42.3448" gradientUnits="userSpaceOnUse">
<stop stop-color="#8AC640"/>
<stop offset="0.41" stop-color="#6FBF4E"/>
<stop offset="1" stop-color="#18997D"/>
</linearGradient>
<clipPath id="clip0_23109_52032">
<rect width="192.44" height="75.71" fill="white"/>
</clipPath>
</defs>
</svg>
