<svg width="84" height="106" viewBox="0 0 84 106" fill="none" xmlns="http://www.w3.org/2000/svg">
<path d="M83.9759 41.2055H76.7917C76.3349 22.3431 60.9121 7.19087 41.9606 7.19087C23.009 7.19087 7.58603 22.3431 7.12952 41.2055H0C0.429013 18.5293 19.0991 5.82153e-05 41.9913 5.82153e-05C52.9911 -0.0182692 63.5574 4.29144 71.4115 11.9998C79.2655 19.7081 83.7781 30.1973 83.9759 41.2055Z" fill="#18484C"/>
<path d="M39.0439 76.594V83.97C17.6296 82.4891 0.636302 64.926 0.0273438 43.2668H7.24177C7.63672 54.9496 14.0022 65.5945 23.5452 71.5522C22.9732 69.7904 22.5673 67.8181 22.5673 65.8752V18.874H29.7741V48.0758H36.981V55.2932H29.7741V65.8753C29.7741 70.3187 32.5676 74.1563 36.3352 75.9292C37.1874 76.322 38.1068 76.5477 39.0439 76.5941" fill="#96CA4C"/>
<path d="M83.9977 42.9236C83.6854 58.6662 74.733 72.2857 61.6959 79.2365V67.3176C61.6959 66.9741 61.6719 66.6717 61.6719 66.3316C61.6719 60.2056 56.6192 55.2921 50.502 55.2921H39.0405V48.0772H48.494C54.6109 48.0772 59.5883 43.2053 59.5883 37.083C59.5883 30.9608 54.6109 26.0884 48.494 26.0884H31.832V18.873H48.494C58.5997 18.873 66.8244 27.0021 66.8244 37.1205C66.8244 42.7071 64.315 47.6442 60.3676 51.0011C64.6137 53.7156 67.8747 57.3538 68.2179 64.9126C74.3967 58.0409 76.7997 48.7643 76.7997 42.9236H83.9977Z" fill="#96CA4C"/>
<path d="M4.27397 93.508H1.35586C1.30943 93.508 1.26427 93.4928 1.22719 93.4648C1.19011 93.4369 1.16312 93.3976 1.15031 93.3529L0.223007 90.0994C0.213959 90.0676 0.212408 90.0341 0.218476 90.0016C0.224543 89.9691 0.238064 89.9384 0.257974 89.912C0.277883 89.8857 0.303639 89.8643 0.333214 89.8495C0.362789 89.8348 0.395376 89.8271 0.428411 89.8271H11.5741C11.6209 89.8271 11.6664 89.8424 11.7036 89.8708C11.7408 89.8992 11.7677 89.939 11.7801 89.9842L12.6755 93.2378C12.6843 93.2695 12.6856 93.3028 12.6794 93.3352C12.6731 93.3675 12.6595 93.3979 12.6396 93.4241C12.6197 93.4503 12.5939 93.4715 12.5645 93.4861C12.535 93.5007 12.5025 93.5083 12.4696 93.5083H8.89876C8.84208 93.5083 8.78774 93.5309 8.74766 93.571C8.70759 93.6111 8.68506 93.6655 8.68504 93.7222V105.786C8.68502 105.842 8.66253 105.897 8.6225 105.937C8.58247 105.977 8.52818 105.999 8.47156 105.999H4.70147C4.67342 105.999 4.64565 105.994 4.61974 105.983C4.59382 105.972 4.57028 105.957 4.55046 105.937C4.53063 105.917 4.51491 105.893 4.50419 105.867C4.49347 105.841 4.48796 105.814 4.48798 105.786V93.7219C4.48796 93.6652 4.46544 93.6108 4.42536 93.5707C4.38529 93.5306 4.33094 93.508 4.27427 93.508" fill="#333333"/>
<path d="M21.7944 103.128H15.2003C15.163 103.128 15.1263 103.137 15.094 103.156C15.0616 103.175 15.0347 103.201 15.0159 103.234L13.4628 105.894C13.444 105.926 13.417 105.953 13.3846 105.971C13.3523 105.99 13.3156 106 13.2783 106H9.4402C9.40274 106 9.36593 105.99 9.33348 105.971C9.30102 105.952 9.27406 105.925 9.25529 105.893C9.23653 105.861 9.22662 105.824 9.22656 105.786C9.22651 105.749 9.2363 105.712 9.25497 105.679L18.318 89.9216C18.3368 89.889 18.3637 89.862 18.3962 89.8432C18.4287 89.8244 18.4656 89.8145 18.5031 89.8145C18.5406 89.8145 18.5775 89.8244 18.61 89.8432C18.6425 89.862 18.6695 89.889 18.6882 89.9216L27.7399 105.68C27.7585 105.712 27.7683 105.749 27.7683 105.787C27.7682 105.824 27.7583 105.861 27.7395 105.893C27.7208 105.926 27.6938 105.953 27.6613 105.972C27.6289 105.99 27.5921 106 27.5546 106H23.7161C23.6788 106 23.6421 105.99 23.6098 105.972C23.5774 105.953 23.5505 105.926 23.5317 105.894L21.9786 103.234C21.9597 103.201 21.9328 103.175 21.9005 103.156C21.8681 103.137 21.8315 103.128 21.7942 103.128H21.7944ZM19.9922 99.8197L18.6871 97.584C18.6683 97.5519 18.6414 97.5252 18.6091 97.5066C18.5768 97.488 18.5402 97.4783 18.503 97.4782C18.4657 97.4782 18.4291 97.4879 18.3968 97.5064C18.3645 97.5248 18.3375 97.5515 18.3186 97.5836L17.0042 99.8192C16.9851 99.8517 16.9749 99.8887 16.9747 99.9263C16.9744 99.964 16.9841 100.001 17.0028 100.034C17.0215 100.066 17.0485 100.094 17.081 100.113C17.1136 100.131 17.1506 100.141 17.1882 100.141H19.8078C19.8454 100.141 19.8823 100.131 19.9149 100.113C19.9474 100.094 19.9744 100.067 19.9931 100.034C20.0118 100.001 20.0216 99.9644 20.0214 99.9267C20.0213 99.8891 20.0112 99.8522 19.9922 99.8197" fill="#333333"/>
<path d="M38.1844 105.999H28.7137C28.657 105.999 28.6027 105.977 28.5626 105.937C28.5225 105.896 28.5 105.842 28.5 105.785V90.0511C28.5 89.9945 28.5225 89.9402 28.5624 89.9001C28.6024 89.8601 28.6566 89.8375 28.7132 89.8374L32.4836 89.8271C32.5117 89.8271 32.5395 89.8326 32.5655 89.8433C32.5915 89.854 32.6151 89.8698 32.635 89.8896C32.6549 89.9095 32.6706 89.9331 32.6814 89.959C32.6922 89.985 32.6977 90.0129 32.6977 90.041V102.093C32.6977 102.149 32.7203 102.204 32.7603 102.244C32.8004 102.284 32.8548 102.307 32.9115 102.307H39.1763C39.2097 102.307 39.2426 102.314 39.2723 102.329C39.3021 102.344 39.328 102.366 39.3479 102.393C39.3678 102.42 39.3811 102.451 39.3868 102.484C39.3925 102.517 39.3904 102.551 39.3807 102.582L38.3888 105.848C38.3755 105.891 38.3484 105.93 38.3116 105.957C38.2748 105.984 38.2302 105.999 38.1844 105.999" fill="#333333"/>
<path d="M40.5743 105.752V90.0411C40.5743 89.9843 40.5968 89.9299 40.6369 89.8898C40.677 89.8497 40.7313 89.8271 40.788 89.8271H45.3388C46.69 89.8271 47.8843 89.9943 48.9217 90.3285C49.9424 90.6554 50.7425 91.1911 51.3221 91.9356C51.8926 92.6805 52.1779 93.6417 52.178 94.8191C52.1732 95.7021 51.9136 96.5648 51.4305 97.3036C51.019 97.9835 50.4052 98.5174 49.6751 98.8303C49.6464 98.8418 49.6205 98.8594 49.5993 98.8819C49.578 98.9043 49.5619 98.9311 49.5519 98.9603C49.5419 98.9896 49.5384 99.0207 49.5416 99.0514C49.5447 99.0822 49.5544 99.1119 49.5701 99.1385L53.4917 105.665C53.5112 105.697 53.5217 105.734 53.5222 105.772C53.5227 105.81 53.5131 105.847 53.4945 105.88C53.4759 105.913 53.4489 105.941 53.4162 105.96C53.3835 105.979 53.3464 105.989 53.3086 105.989H48.9032C48.8649 105.989 48.8272 105.978 48.7943 105.959C48.7613 105.939 48.7341 105.911 48.7157 105.878L44.8204 98.7397H44.772V105.752C44.772 105.809 44.7495 105.863 44.7094 105.903C44.6693 105.943 44.615 105.966 44.5583 105.966H40.7879C40.7313 105.966 40.6769 105.943 40.6368 105.903C40.5968 105.863 40.5742 105.809 40.5742 105.752H40.5743ZM44.772 97.5643C44.7722 97.5929 44.7781 97.6212 44.7892 97.6476C44.8004 97.674 44.8167 97.6979 44.8372 97.7179C44.8576 97.7379 44.8819 97.7537 44.9085 97.7643C44.9351 97.7749 44.9635 97.7801 44.9921 97.7796C45.6024 97.7645 46.1161 97.6857 46.5332 97.5431C46.9645 97.4121 47.3415 97.144 47.607 96.7794C47.8558 96.4298 47.9805 95.9777 47.9809 95.4231C47.9809 94.5874 47.7154 94.0175 47.1845 93.7134C46.6832 93.4308 45.9522 93.2795 44.9915 93.2597C44.963 93.2593 44.9346 93.2646 44.9082 93.2753C44.8817 93.2859 44.8576 93.3017 44.8372 93.3217C44.8169 93.3417 44.8007 93.3655 44.7895 93.3918C44.7784 93.4181 44.7726 93.4463 44.7724 93.4749L44.772 97.5643Z" fill="#333333"/>
<path d="M65.9912 90.9615C67.2117 91.6602 68.227 92.6681 68.935 93.884C69.6571 95.11 70.0335 96.5091 70.0242 97.9323C70.0364 99.3525 69.6597 100.749 68.935 101.97C68.2219 103.19 67.2011 104.201 65.9747 104.902C64.7483 105.603 63.3595 105.969 61.9472 105.964C60.5339 105.968 59.1442 105.601 57.9164 104.9C56.6886 104.199 55.6655 103.189 54.9489 101.97C54.224 100.749 53.8473 99.3523 53.8597 97.9321C53.8503 96.5088 54.2268 95.1097 54.9491 93.8837C55.6632 92.669 56.6815 91.6617 57.9035 90.9613C59.1358 90.259 60.5294 89.8896 61.9474 89.8896C63.3654 89.8896 64.759 90.259 65.9912 90.9613V90.9615ZM59.7799 94.0353C59.1234 94.4532 58.5813 95.0284 58.2028 95.7088C57.8244 96.3892 57.6214 97.1534 57.6123 97.9321C57.6131 98.7074 57.8177 99.4688 58.2055 100.14C58.5785 100.83 59.1201 101.415 59.7798 101.839C60.4241 102.256 61.1748 102.478 61.9419 102.478C62.709 102.478 63.4597 102.256 64.104 101.839C64.7651 101.413 65.3099 100.829 65.6893 100.14C66.0708 99.4667 66.2714 98.7058 66.2714 97.9318C66.2714 97.1577 66.0708 96.3969 65.6893 95.7236C65.314 95.0378 64.7726 94.4574 64.1149 94.0356C63.4688 93.6185 62.7163 93.3968 61.9475 93.3969C61.178 93.3927 60.4243 93.6148 59.7799 94.0356" fill="#333333"/>
<path d="M71.7032 105.786V90.0411C71.7032 89.9843 71.7257 89.9299 71.7658 89.8898C71.8059 89.8497 71.8602 89.8271 71.9169 89.8271H76.8177C77.9594 89.8271 78.9324 89.9108 79.7368 90.078C80.4922 90.2191 81.2131 90.5054 81.8596 90.9212C82.4574 91.3196 82.9333 91.8759 83.2345 92.5284C83.5562 93.2046 83.7171 94.0289 83.717 95.0016C83.7297 95.7441 83.5642 96.4789 83.2345 97.1442C82.9123 97.7754 82.4552 98.3279 81.8956 98.7624C81.2875 99.2334 80.5959 99.5852 79.8573 99.7995C79.0558 100.043 78.2224 100.166 77.3846 100.164H76.1267C76.0986 100.164 76.0707 100.17 76.0448 100.18C76.0188 100.191 75.9952 100.207 75.9754 100.227C75.9555 100.247 75.9398 100.271 75.9291 100.297C75.9184 100.323 75.9129 100.35 75.913 100.379V105.786C75.9129 105.843 75.8904 105.897 75.8503 105.937C75.8103 105.978 75.7559 106 75.6992 106H71.9168C71.8602 106 71.8058 105.978 71.7657 105.937C71.7257 105.897 71.7031 105.843 71.7031 105.786L71.7032 105.786ZM75.913 93.4713V96.5198C75.913 96.5765 75.9355 96.6309 75.9755 96.671C76.0156 96.7111 76.0699 96.7336 76.1266 96.7337H77.1192C77.8911 96.7337 78.4862 96.5817 78.9043 96.2777C79.3144 95.9814 79.5195 95.5484 79.5196 94.9787C79.5196 94.4242 79.3145 93.9987 78.9043 93.7021C78.4863 93.4056 77.8913 93.2574 77.1192 93.2574H76.1267C76.07 93.2574 76.0157 93.28 75.9756 93.3201C75.9355 93.3602 75.913 93.4146 75.913 93.4713" fill="#333333"/>
</svg>
