<svg width="556" height="511" viewBox="0 0 556 511" fill="none" xmlns="http://www.w3.org/2000/svg">
<circle cx="265.5" cy="295.5" r="197.5" fill="#0a46d2"/>
<path d="M255.326 474.054C89.7174 440.861 83.2034 295.842 95.3321 222C79.0613 393.347 189.205 459.629 255.326 474.054C258.813 474.753 262.37 475.402 266 476C262.6 475.508 259.032 474.862 255.326 474.054Z" fill="#F5F7F8"/>
<path d="M278.424 113.228C444.032 146.42 450.546 291.44 438.417 365.281C454.688 193.935 344.544 127.652 278.424 113.228C274.937 112.529 271.379 111.879 267.75 111.281C271.149 111.773 274.717 112.419 278.424 113.228Z" fill="#F5F7F8"/>
<path d="M396.971 428.295C336.151 497.368 228.353 452.117 176.866 421.601C298.955 486.666 371.828 455.481 396.971 428.295C398.252 426.84 399.511 425.335 400.75 423.778C399.64 425.259 398.38 426.771 396.971 428.295Z" fill="#F5F7F8"/>
<path d="M136.779 158.987C197.599 89.9135 305.396 135.164 356.884 165.681C234.795 100.615 161.921 131.8 136.779 158.987C135.498 160.441 134.238 161.946 133 163.503C134.11 162.022 135.369 160.511 136.779 158.987Z" fill="#F5F7F8"/>
<path d="M141.338 482.025C38.4739 423.776 35.6706 319.726 45.9735 257C34.432 378.542 86.4971 447.221 141.338 482.025C162.117 493.792 186.979 503.69 216.641 511C195.613 507.956 168.144 499.037 141.338 482.025Z" fill="#45474B"/>
<path d="M61.1882 235.279C80.7635 118.699 177.587 80.4949 240.056 68.7341C121.89 99.4376 75.1482 171.844 61.1882 235.279C57.2338 258.829 56.4317 285.576 59.7018 315.951C55.3733 295.149 54.3646 266.286 61.1882 235.279Z" fill="#45474B"/>
<path d="M237.957 84.5489C354.709 66.0349 421.721 145.683 452.737 201.169C386.05 98.9013 302.538 77.6114 237.957 84.5489C214.372 88.2888 188.757 96.0343 161 108.794C179.345 98.0749 206.39 87.9399 237.957 84.5489Z" fill="#45474B"/>
<path d="M397.303 468.025C500.167 409.776 502.971 305.726 492.668 243C504.209 364.542 452.144 433.221 397.303 468.025C376.524 479.792 351.662 489.69 322 497C343.028 493.956 370.497 485.037 397.303 468.025Z" fill="#45474B"/>
<path d="M477.916 269.342C483.344 151.256 396.744 93.5074 338.156 68.8478C447.199 123.761 477.635 204.39 477.916 269.342C476.819 293.197 471.967 319.513 462.37 348.516C470.985 329.093 478.053 301.091 477.916 269.342Z" fill="#45474B"/>
</svg>
